<?xml version="1.0" encoding="UTF-8" standalone="no"?>
<svg
   width="3823.2932"
   height="700"
   viewBox="0 0 1011.5796 185.20831"
   version="1.1"
   id="svg6"
   sodipodi:docname="logo-with.skull-transparent.svg"
   inkscape:version="1.2.2 (b0a84865, 2022-12-01)"
   xml:space="preserve"
   xmlns:inkscape="http://www.inkscape.org/namespaces/inkscape"
   xmlns:sodipodi="http://sodipodi.sourceforge.net/DTD/sodipodi-0.dtd"
   xmlns="http://www.w3.org/2000/svg"
   xmlns:svg="http://www.w3.org/2000/svg"><defs
     id="defs10"><rect
       x="186.69025"
       y="164.09715"
       width="191.44669"
       height="114.15454"
       id="rect1792" /></defs><sodipodi:namedview
     id="namedview8"
     pagecolor="#505050"
     bordercolor="#ffffff"
     borderopacity="1"
     inkscape:showpageshadow="0"
     inkscape:pageopacity="0"
     inkscape:pagecheckerboard="1"
     inkscape:deskcolor="#505050"
     showgrid="false"
     inkscape:zoom="0.33723631"
     inkscape:cx="2129.0709"
     inkscape:cy="1276.5529"
     inkscape:window-width="3440"
     inkscape:window-height="1387"
     inkscape:window-x="1728"
     inkscape:window-y="25"
     inkscape:window-maximized="1"
     inkscape:current-layer="svg6" /><path
     style="fill:#f9f6ee"
     d="m 350.3083,158.59388 c -0.50932,-0.0603 -1.87854,-0.23824 -3.0427,-0.3953 -16.0477,-2.1651 -28.51825,-16.10921 -32.04254,-35.82879 -1.5847,-8.86688 -1.58465,-22.07644 1e-4,-30.960939 1.37011,-7.68116 4.4663,-15.30783 8.59113,-21.16198 1.90038,-2.69712 5.59772,-6.48907 8.25658,-8.46786 5.89275,-4.38553 11.97549,-6.39019 20.22181,-6.6644 10.06789,-0.33478 18.341,2.43213 25.38346,8.48939 1.78461,1.53496 5.06647,5.39909 6.87538,8.09523 2.60935,3.88917 5.31128,10.12699 6.61598,15.27401 2.87495,11.3416 2.88479,28.466189 0.0228,39.743939 -1.17842,4.64365 -3.26706,9.75514 -5.49879,13.45711 -6.09712,10.11375 -14.34438,16.05328 -24.90934,17.93925 -2.14712,0.38329 -8.74107,0.6857 -10.4739,0.48034 z m 9.17125,-9.5075 c 4.45838,-0.83805 8.48066,-2.83089 11.62038,-5.75729 4.41201,-4.11228 7.8886,-10.47595 9.74302,-17.834 2.7281,-10.82467 2.73094,-26.635039 0.007,-37.444969 -2.35062,-9.32746 -7.2258,-16.87849 -13.24151,-20.5094 -2.05374,-1.23958 -6.0514,-2.63816 -8.95608,-3.13328 -3.05866,-0.52137 -8.7085,-0.40263 -11.55886,0.24293 -7.84289,1.77628 -13.43605,6.59633 -17.54692,15.1215 -4.00302,8.30151 -5.61535,18.90628 -4.90587,32.267309 0.45847,8.63396 1.70242,14.60245 4.30371,20.64935 1.85178,4.30461 5.23924,9.09169 8.05882,11.38849 5.83662,4.75448 14.07027,6.58952 22.4766,5.00936 z m 177.90234,9.3762 c -18.7956,-1.80996 -31.0701,-15.23603 -34.73606,-37.99488 -0.53298,-3.30889 -0.58859,-4.59163 -0.58859,-13.57603 0,-10.740219 0.22045,-13.155859 1.8134,-19.871169 3.09822,-13.06099 10.90308,-23.91273 20.59117,-28.62963 5.2161,-2.5396 10.04089,-3.49359 16.58541,-3.2794 5.97421,0.19554 9.35905,0.99047 13.91629,3.26826 7.92286,3.95999 13.86564,11.89007 16.9065,22.5602 1.81343,6.36318 2.52823,11.76589 2.72465,20.593919 l 0.15455,6.94532 H 543.49125 512.2333 v 2.3151 c 0.003,7.98335 1.99035,17.24885 5.01679,23.39104 3.62402,7.35494 8.23418,11.68292 14.76923,13.86526 3.39053,1.13225 6.04117,1.5222 10.37558,1.52638 9.36694,0.009 15.96776,-2.72119 22.39714,-9.26394 l 2.68568,-2.73304 3.46482,2.80922 3.46482,2.80921 -0.83685,1.09506 c -3.04649,3.98653 -8.09627,8.06235 -13.10621,10.57849 -6.14786,3.08758 -14.6208,4.40555 -23.08331,3.59063 z m 26.59655,-62.220399 c -0.64891,-12.1133 -3.25953,-21.00134 -7.566,-25.75907 -4.05606,-4.48108 -10.47617,-6.70138 -18.38227,-6.3572 -1.89177,0.0824 -4.09442,0.31868 -4.89479,0.52516 -7.94911,2.05079 -13.36537,7.52139 -17.32819,17.50205 -1.43828,3.62241 -2.65399,9.35974 -3.43387,16.20572 l -0.15825,1.38907 h 25.9756 25.97557 z m 51.44236,62.208359 c -12.6636,-1.02934 -21.75034,-6.84675 -25.94253,-16.60866 -1.06757,-2.48592 -1.99189,-6.10214 -2.22131,-8.69032 -0.0806,-0.9095 -0.21201,-2.36802 -0.29202,-3.24114 l -0.14542,-1.5875 h 5.1725 c 2.8633,0 5.17253,0.1056 5.17253,0.23655 0,1.47604 0.66736,5.97591 1.08844,7.33923 1.04272,3.37594 2.06523,5.11892 4.32763,7.37692 4.60669,4.59772 11.23802,6.76638 19.55932,6.39654 7.20487,-0.32022 12.23992,-2.17104 15.92136,-5.8525 3.15137,-3.15135 4.59219,-6.589 4.81036,-11.47691 0.28138,-6.30366 -1.16758,-10.59949 -4.80216,-14.23746 -1.60943,-1.61092 -2.35958,-2.11562 -5.1875,-3.49017 -3.77373,-1.83426 -7.10202,-3.00355 -12.96329,-4.55424 -11.22198,-2.96893 -16.87742,-5.76131 -21.9878,-10.856479 -4.56504,-4.55145 -6.83381,-10.69614 -6.84704,-18.54434 -0.009,-5.25879 1.5186,-10.40689 4.1887,-14.11736 3.45273,-4.7981 8.51413,-8.25307 14.71771,-10.04649 7.50427,-2.16945 18.04744,-1.92839 24.6957,0.56463 6.54413,2.45397 11.97811,7.33161 15.13221,13.5829 1.81819,3.6036 2.90886,7.97956 2.90886,11.6709 v 2.08743 h -5.00227 -5.00224 l -0.14809,-1.25677 c -0.0815,-0.69122 -0.22479,-2.03067 -0.31855,-2.97656 -0.58124,-5.86463 -4.30467,-11.45823 -9.22409,-13.85705 -3.83009,-1.86762 -8.56486,-2.61183 -14.16497,-2.22642 -8.35557,0.57504 -13.57681,3.51139 -16.13133,9.07201 -1.10543,2.40628 -1.43354,4.45198 -1.26296,7.87429 0.23262,4.66734 1.21393,7.46772 3.78999,10.81549 2.63769,3.42787 8.56877,6.20275 19.41867,9.085119 11.44797,3.04123 18.38947,6.65985 23.20362,12.09613 6.46467,7.30009 7.67998,21.24492 2.69343,30.90501 -5.65798,10.96076 -17.70618,15.93572 -35.15746,14.51722 z m 332.32983,0.0122 c -17.01472,-1.63847 -28.80624,-12.91539 -33.58994,-32.12404 -1.3185,-5.29431 -1.8769,-11.12983 -1.87719,-19.61728 0,-12.559359 1.33683,-20.085269 5.13334,-28.889829 4.64608,-10.77482 12.62004,-18.45648 22.11853,-21.30775 4.07842,-1.22426 7.00434,-1.57188 11.88059,-1.41149 5.97431,0.19651 9.25425,0.94999 13.76209,3.16148 7.83426,3.84339 13.94378,11.87703 16.96794,22.31175 1.89433,6.53634 2.63736,12.02034 2.8204,20.816139 l 0.14727,7.07761 h -31.25581 -31.25581 l 0.003,2.3151 c 0.004,3.05122 0.63108,8.85599 1.32524,12.2623 0.83233,4.08427 2.20361,8.04235 4.04813,11.6846 3.56923,7.04786 8.04841,11.18476 14.41071,13.30939 3.39053,1.13226 6.04118,1.5222 10.37559,1.52638 9.37847,0.009 15.91712,-2.69282 22.40512,-9.25822 l 2.69367,-2.72579 3.45308,2.79969 3.45308,2.79966 -1.16287,1.495 c -4.02117,5.16975 -10.47065,9.69568 -16.95146,11.8958 -5.41951,1.83981 -12.25727,2.51963 -18.90453,1.87949 z m 26.61589,-62.588849 c -0.0968,-2.1308 -0.4214,-5.48246 -0.72125,-7.44814 -1.7499,-11.47081 -5.15631,-18.01821 -11.1587,-21.44793 -5.55701,-3.17524 -15.21134,-3.8486 -21.62606,-1.50835 -9.65533,3.52252 -16.60588,15.85282 -17.94317,31.8312 l -0.20481,2.4474 h 25.91501 25.91501 z M 440.92809,157.7826 c -3.53077,-0.20892 -8.01723,-1.31498 -10.93927,-2.69688 -7.78483,-3.68164 -14.2201,-11.39859 -18.19794,-21.8223 -4.66482,-12.22391 -5.40772,-33.637199 -1.64297,-47.356989 2.51752,-9.17452 6.23398,-16.03496 11.5813,-21.37865 4.01132,-4.00859 7.76723,-6.25379 12.71659,-7.60168 6.44964,-1.75647 15.85468,-1.32291 22.29579,1.0278 5.05412,1.84453 10.8115,5.79433 13.80931,9.47376 l 0.93657,1.14951 v -21.05944 -21.0594 h 5.15937 5.15938 v 64.82291 64.822909 h -4.72184 -4.72184 l -0.17295,-3.21652 c -0.0951,-1.76911 -0.17831,-4.47779 -0.18485,-6.01928 l -0.0119,-2.80273 -0.97697,1.19063 c -4.63469,5.64822 -11.80711,10.0155 -19.12582,11.64573 -2.24362,0.49974 -7.59975,1.09892 -8.97759,1.0043 -0.3638,-0.0249 -1.25677,-0.0806 -1.98438,-0.1237 z m 9.92188,-9.3734 c 7.78921,-1.07963 15.41952,-6.37738 19.6969,-13.67562 l 0.9406,-1.60489 -8e-4,-26.28151 -7.9e-4,-26.281529 -0.95354,-1.5875 c -2.3336,-3.88509 -4.24728,-5.95633 -8.42428,-9.11789 -3.30987,-2.50523 -6.87253,-3.92421 -11.62395,-4.62973 -3.41819,-0.50755 -5.67343,-0.51268 -8.89479,-0.0202 -3.14929,0.48144 -4.9214,1.01091 -7.27604,2.17393 -4.37029,2.15861 -7.85057,5.77441 -10.39534,10.80015 -4.17584,8.24696 -5.60505,15.56306 -5.60955,28.715199 -0.003,9.03654 0.57926,14.14556 2.30624,20.23272 1.78007,6.27435 4.41882,11.36239 7.64402,14.73927 5.40043,5.65439 13.03133,7.86268 22.59109,6.53762 z m 324.51145,9.28135 c -4.9997,-0.45473 -8.79869,-1.61883 -12.98348,-3.97836 -1.47904,-0.83391 -2.91727,-1.99445 -4.90505,-3.95801 -2.62364,-2.59162 -2.91161,-2.98238 -4.28975,-5.82083 -2.27941,-4.69482 -3.08943,-8.61428 -3.08943,-14.94896 0,-5.74036 0.70702,-9.55474 2.49648,-13.46839 3.23535,-7.07601 10.00162,-12.59299 18.66754,-15.2209 5.45468,-1.654129 5.74289,-1.677769 21.89692,-1.796299 l 14.88281,-0.1092 v -7.32448 c 0,-7.84031 -0.24297,-10.92214 -1.1057,-14.07135 -1.33916,-4.88832 -4.44132,-9.09634 -8.06619,-10.94158 -5.57009,-2.83545 -16.87793,-2.97297 -22.70966,-0.27618 -5.09588,2.3565 -8.47519,6.96427 -9.92886,13.53831 -0.28091,1.27031 -0.51332,3.11333 -0.51647,4.0956 l -0.006,1.78593 h -5.02709 -5.02708 v -1.91823 c 0.003,-10.04586 6.33129,-20.12724 15.55694,-24.77886 4.69765,-2.36858 9.9468,-3.46896 16.50797,-3.46056 6.08724,0.008 11.02659,0.90579 15.27122,2.77637 7.19759,3.17193 11.68368,8.37184 13.92134,16.13649 1.40084,4.86088 1.44838,6.06297 1.44872,36.634749 2.7e-4,23.90709 0.0634,28.73064 0.41532,31.76004 0.47241,4.06604 1.09006,6.92555 2.11455,9.78958 0.39039,1.09141 0.76724,2.43086 0.83741,2.97658 l 0.12758,0.99217 h -4.93723 -4.93721 l -0.63346,-1.38906 c -0.98634,-2.16285 -1.95051,-5.84389 -2.46232,-9.40072 -0.25715,-1.78705 -0.56353,-3.25381 -0.68082,-3.25948 -0.11729,-0.006 -0.72957,0.69929 -1.36065,1.56654 -3.26771,4.49083 -8.91117,9.21315 -13.6189,11.39601 -4.66066,2.16104 -11.77761,3.22625 -17.85937,2.67309 z m 10.71562,-9.12032 c 4.07776,-0.80166 7.05752,-2.01086 10.41173,-4.22511 4.78414,-3.15825 8.39189,-7.33803 10.17545,-11.78885 1.24388,-3.10407 1.36374,-4.47712 1.36863,-15.67655 l 0.005,-10.51719 h -12.28397 c -15.72281,0 -18.31054,0.32201 -24.32627,3.02712 -4.35271,1.9573 -8.26637,6.22748 -9.8352,10.73121 -1.03983,2.98511 -1.5704,9.37189 -1.0479,12.61393 1.47669,9.16231 6.22302,14.28793 14.64122,15.81119 2.75428,0.49836 8.41589,0.51098 10.8917,0.0243 z M 238.12497,91.281241 v -64.82291 h 5.02624 5.02624 l 0.067,40.28708 0.067,40.287089 20.32449,-24.081359 c 11.17847,-13.24475 20.61017,-24.41076 20.95933,-24.81337 l 0.63484,-0.73202 6.85069,0.0706 6.85069,0.0706 -16.12139,18.78541 c -8.86676,10.33198 -16.41558,19.16062 -16.77515,19.6192 l -0.65375,0.83377 16.18874,25.624569 c 8.90381,14.0935 17.30288,27.3763 18.66461,29.51733 1.36172,2.14101 2.47586,3.95671 2.47586,4.0349 0,0.0781 -3.00633,0.13745 -6.68073,0.13179 l -6.68073,-0.0103 -15.72747,-25.00866 c -8.65011,-13.75475 -15.80417,-25.05604 -15.89792,-25.11398 -0.0937,-0.0579 -3.4041,3.66989 -7.35633,8.28407 l -7.18587,8.38942 -0.001,16.73489 -0.001,16.73489 h -5.02708 -5.02709 z m 435.23957,0 v -64.82291 h 5.15853 5.15853 l 0.067,40.17014 0.067,40.170149 19.79416,-23.461309 c 10.88679,-12.90373 20.29272,-24.02045 20.90209,-24.70384 l 1.10791,-1.24253 6.81117,0.078 6.81117,0.078 -15.76668,18.38854 c -8.67167,10.11369 -16.22578,18.93427 -16.78694,19.60127 l -1.02029,1.21273 18.75357,29.681809 18.75356,29.68181 -6.77011,-0.0706 -6.77008,-0.0706 -15.76602,-25.05882 c -8.67132,-13.78234 -15.84825,-25.03374 -15.94874,-25.00311 -0.10048,0.0306 -3.3406,3.74662 -7.20023,8.25777 l -7.01752,8.20208 -0.01,16.86719 -0.01,16.86717 h -5.15937 -5.15938 z m 170.92083,0 v -64.82291 h 5.15938 5.15937 v 64.82291 64.822909 h -5.15937 -5.15938 z m 37.04167,0 v -64.82291 h 5.15937 5.15938 v 64.82291 64.822909 h -5.15938 -5.15937 z"
     id="path4" /><g
     id="g2159"
     transform="translate(12.446971,340.99247)"><g
       id="layer1"
       transform="matrix(1.8528053,0,0,1.8528053,-32.650272,-347.11208)"><g
         id="g1735"
         style="fill:none;stroke:none;stroke-width:0;stroke-dasharray:none"><path
           style="display:inline;fill:none;stroke:#f9f6ee;stroke-width:4.36309;stroke-dasharray:none;stroke-opacity:1"
           d="m 37.3315,28.314429 c 2.979115,-2.799752 6.457944,-4.969177 10.213925,-6.422173 3.755979,-1.452996 7.78911,-2.189562 11.876823,-2.1236 4.087713,0.06596 8.230008,0.934452 12.204324,2.69157 3.974314,1.757118 7.404397,4.236518 10.204152,7.215633"
           id="path1057" /><path
           style="display:inline;fill:none;stroke:#f9f6ee;stroke-width:4.36309;stroke-dasharray:none;stroke-opacity:1"
           d="M 42.751558,78.442734 C 39.016951,76.221168 35.909357,73.347887 33.487527,70.054182 31.065699,66.760477 29.329636,63.046348 28.338095,59.14309 26.355013,51.336572 27.350016,42.773535 31.793147,35.304322"
           id="path309-8" /><path
           style="fill:none;fill-opacity:1;stroke:#f9f6ee;stroke-width:4.36309;stroke-dasharray:none;stroke-opacity:1"
           d="m 50.024365,88.565148 c 0,0 -0.535327,-4.200102 2.123674,-5.8991 2.659001,-1.698998 13.096003,1.483165 16.045552,-0.550582 2.949549,-2.033747 2.516948,-6.528338 2.516948,-6.528338 0,0 -0.282871,4.573799 2.595604,6.724973 2.878475,2.151174 13.533107,-1.417784 15.966896,0.353947 2.433789,1.771731 2.280986,5.820444 2.280986,5.820444"
           id="path3550" /><path
           style="fill:none;fill-opacity:1;stroke:#f9f6ee;stroke-width:4.36309;stroke-dasharray:none;stroke-opacity:1"
           d="m 102.66273,58.136578 8.27199,13.370788 -13.734986,6.592794"
           id="path3554-1" /><path
           style="fill:none;fill-opacity:1;stroke:#f9f6ee;stroke-width:4.36309;stroke-dasharray:none;stroke-opacity:1"
           d="M 100.0692,54.897896 89.857403,53.720541 92.043728,44.002659"
           id="path3554-1-5" /><path
           style="display:inline;fill:none;fill-opacity:1;stroke:#f9f6ee;stroke-width:4.36309;stroke-dasharray:none;stroke-opacity:1"
           d="m 73.542425,49.788249 c 0,0 0.296738,-4.499952 2.830116,-6.481925 2.533378,-1.981973 5.91205,1.774612 8.274359,-0.12752 2.362309,-1.902132 2.581436,-6.289918 2.581436,-6.289918"
           id="path3556-9" /></g></g></g></svg>
