<?xml version="1.0" encoding="UTF-8" standalone="no"?>
<!-- Created with Inkscape (http://www.inkscape.org/) -->

<svg
   width="500"
   height="500"
   viewBox="0 0 132.29167 132.29167"
   version="1.1"
   id="svg5"
   xml:space="preserve"
   inkscape:version="1.2.2 (b0a84865, 2022-12-01)"
   sodipodi:docname="kodeskalle.svg"
   inkscape:export-filename="kodeskalle.png"
   inkscape:export-xdpi="191.85449"
   inkscape:export-ydpi="191.85449"
   xmlns:inkscape="http://www.inkscape.org/namespaces/inkscape"
   xmlns:sodipodi="http://sodipodi.sourceforge.net/DTD/sodipodi-0.dtd"
   xmlns="http://www.w3.org/2000/svg"
   xmlns:svg="http://www.w3.org/2000/svg"><sodipodi:namedview
     id="namedview7"
     pagecolor="#505050"
     bordercolor="#ffffff"
     borderopacity="1"
     inkscape:showpageshadow="0"
     inkscape:pageopacity="0"
     inkscape:pagecheckerboard="1"
     inkscape:deskcolor="#505050"
     inkscape:document-units="mm"
     showgrid="false"
     inkscape:zoom="1.3295176"
     inkscape:cx="221.13284"
     inkscape:cy="259.86869"
     inkscape:window-width="1647"
     inkscape:window-height="921"
     inkscape:window-x="16"
     inkscape:window-y="38"
     inkscape:window-maximized="0"
     inkscape:current-layer="svg5" /><defs
     id="defs2"><rect
       x="186.69025"
       y="164.09715"
       width="191.44669"
       height="114.15454"
       id="rect1792" /></defs><rect
     style="display:inline;fill:#16161d;fill-opacity:1;stroke:none;stroke-width:2.58391;stroke-dasharray:none;stroke-opacity:1"
     id="rect3290"
     width="132"
     height="132.392"
     x="-2.2208786e-07"
     y="-3.5527137e-15" /><g
     inkscape:label="Layer 1"
     inkscape:groupmode="layer"
     id="layer1"
     transform="matrix(1.1521832,0,0,1.1521832,-15.005585,3.7518198)"><g
       id="g1735"
       style="fill:none;stroke:none;stroke-width:0;stroke-dasharray:none"><path
         style="display:inline;fill:none;stroke:#f9f6ee;stroke-width:2.64583;stroke-dasharray:none;stroke-opacity:1"
         d="m 37.3315,28.314429 c 2.979115,-2.799752 6.457944,-4.969177 10.213925,-6.422173 3.755979,-1.452996 7.78911,-2.189562 11.876823,-2.1236 4.087713,0.06596 8.230008,0.934452 12.204324,2.69157 3.974314,1.757118 7.404397,4.236518 10.204152,7.215633"
         id="path1057" /><path
         style="display:inline;fill:none;stroke:#f9f6ee;stroke-width:2.64583;stroke-dasharray:none;stroke-opacity:1"
         d="M 42.751558,78.442734 C 39.016951,76.221168 35.909357,73.347887 33.487527,70.054182 31.065699,66.760477 29.329636,63.046348 28.338095,59.14309 26.355013,51.336572 27.350016,42.773535 31.793147,35.304322"
         id="path309-8" /><path
         style="fill:none;fill-opacity:1;stroke:#f9f6ee;stroke-width:2.64583;stroke-dasharray:none;stroke-opacity:1"
         d="m 50.024365,88.565148 c 0,0 -0.535327,-4.200102 2.123674,-5.8991 2.659001,-1.698998 13.096003,1.483165 16.045552,-0.550582 2.949549,-2.033747 2.516948,-6.528338 2.516948,-6.528338 0,0 -0.282871,4.573799 2.595604,6.724973 2.878475,2.151174 13.533107,-1.417784 15.966896,0.353947 2.433789,1.771731 2.280986,5.820444 2.280986,5.820444"
         id="path3550"
         sodipodi:nodetypes="czzczzc" /><path
         style="fill:none;fill-opacity:1;stroke:#f9f6ee;stroke-width:2.64583;stroke-dasharray:none;stroke-opacity:1"
         d="m 102.66273,58.136578 8.27199,13.370788 -13.734986,6.592794"
         id="path3554-1"
         inkscape:transform-center-x="4.8605939"
         inkscape:transform-center-y="-2.6825877" /><path
         style="fill:none;fill-opacity:1;stroke:#f9f6ee;stroke-width:2.64583;stroke-dasharray:none;stroke-opacity:1"
         d="M 100.0692,54.897896 89.857403,53.720541 92.043728,44.002659"
         id="path3554-1-5"
         inkscape:transform-center-x="-3.929973"
         inkscape:transform-center-y="-3.5272142" /><path
         style="display:inline;fill:none;fill-opacity:1;stroke:#f9f6ee;stroke-width:2.64583;stroke-dasharray:none;stroke-opacity:1"
         d="m 73.542425,49.788249 c 0,0 0.296738,-4.499952 2.830116,-6.481925 2.533378,-1.981973 5.91205,1.774612 8.274359,-0.12752 2.362309,-1.902132 2.581436,-6.289918 2.581436,-6.289918"
         id="path3556-9"
         sodipodi:nodetypes="czzc" /></g></g></svg>
